<?xml version="1.0" ?><!-- Uploaded to: SVG Repo, www.svgrepo.com, Generator: SVG Repo Mixer Tools -->
<svg width="800px" height="800px" viewBox="0 0 24 24" data-name="025_SCIENCE" id="_025_SCIENCE" xmlns="http://www.w3.org/2000/svg"><defs><style>.cls-1{fill:#333;}</style></defs><path class="cls-1" d="M12,22a1,1,0,0,1-1-1,4,4,0,0,1,4-4h5V4H15a2,2,0,0,0-2,2v9a1,1,0,0,1-2,0V6a4,4,0,0,1,4-4h6a1,1,0,0,1,1,1V18a1,1,0,0,1-1,1H15a2,2,0,0,0-2,2A1,1,0,0,1,12,22Z"/><path class="cls-1" d="M12,22a1,1,0,0,1-1-1,2,2,0,0,0-2-2H3a1,1,0,0,1-1-1V3A1,1,0,0,1,3,2H9a4,4,0,0,1,4,4,1,1,0,0,1-2,0A2,2,0,0,0,9,4H4V17H9a4,4,0,0,1,4,4A1,1,0,0,1,12,22Z"/></svg>